<?xml version="1.0" standalone="no"?>
<!DOCTYPE svg PUBLIC "-//W3C//DTD SVG 20010904//EN"
 "http://www.w3.org/TR/2001/REC-SVG-20010904/DTD/svg10.dtd">
<svg version="1.0" xmlns="http://www.w3.org/2000/svg"
 width="128.000000pt" height="128.000000pt" viewBox="0 0 128.000000 128.000000"
 preserveAspectRatio="xMidYMid meet">
<metadata>
Created by potrace 1.14, written by Peter Selinger 2001-2017
</metadata>
<g transform="translate(0.000000,128.000000) scale(0.100000,-0.100000)"
fill="#000000" stroke="none">
<path d="M1097 941 c-89 -57 -237 -229 -322 -375 l-28 -48 -115 6 c-63 3 -117
7 -119 9 -2 3 28 52 66 110 38 58 77 120 86 136 20 40 22 95 4 117 -50 60
-200 58 -326 -3 -120 -59 -192 -151 -200 -256 -5 -60 -4 -64 27 -95 56 -56
141 -40 193 36 15 21 30 50 32 63 7 31 -4 79 -16 79 -6 0 -7 -5 -4 -11 26 -40
-19 -144 -73 -168 -40 -19 -89 -13 -106 11 -63 90 81 299 242 352 71 24 156
24 182 1 37 -34 23 -85 -66 -232 -77 -130 -86 -139 -135 -141 -47 -3 -73 -14
-106 -45 -33 -30 -28 -43 5 -15 20 17 43 25 76 27 27 1 46 -2 45 -6 -2 -5 -24
-44 -48 -87 -31 -55 -40 -81 -33 -88 12 -12 42 6 42 24 0 5 19 42 42 83 l43
74 122 -2 c68 -1 123 -2 123 -2 0 0 -9 -24 -20 -53 -25 -65 -25 -94 -2 -115
24 -22 50 -21 90 3 40 25 42 36 2 15 -74 -38 -84 -3 -34 112 14 32 27 45 58
57 22 9 37 18 34 21 -3 3 -17 1 -32 -5 l-28 -10 23 37 c82 135 158 233 257
331 71 69 78 91 19 53z"/>
</g>
</svg>
